# xmcd
#
# Track frame offsets: 
#        150
#        17638
#        32006
#        51585
#
# Disc length: 897 seconds
#
# Revision: 0
# Processed by: cddbd v1.5.2PL0 Copyright (c) Steve Scherf et al.
# Submitted via: ExactAudioCopy v0.99pb5
#
DISCID=2d037f04
DTITLE=Lucien Caine - EP1
DYEAR=2008
DGENRE=Pop
TTITLE0=The Only Man That Matters
TTITLE1=Advice From Strangers
TTITLE2=Black Widow
TTITLE3=Those Days Are Gone
EXTD=
EXTT0=
EXTT1=
EXTT2=
EXTT3=
PLAYORDER=
